<?xml version="1.0" ?><svg data-name="002" id="_002" viewBox="0 0 128 128" xmlns="http://www.w3.org/2000/svg"><defs><style>.cls-1{opacity:0.3;}.cls-2{fill:#97c1ff;}.cls-3{fill:#eef6ff;}.cls-4{fill:#5cbeff;}.cls-5{fill:#fff;}.cls-6{fill:#6d6daa;}.cls-7{fill:#b1f1a8;}.cls-8{fill:#48bc33;}.cls-9{opacity:0.5;}.cls-10{fill:#96d7ff;}.cls-11{fill:#c9c1f5;}</style></defs><title/><g class="cls-1"><path class="cls-2" d="M126.19,49.69a30,30,0,0,0-23.51-25,19.69,19.69,0,0,1-10.93-6.55A37,37,0,0,0,27.42,33.78,19.57,19.57,0,0,1,17,46.94,28,28,0,1,0,54.66,84.29,9.41,9.41,0,0,1,63.17,79H64a12.39,12.39,0,0,1,12,9.74,20,20,0,0,0,26.06,14.14A20,20,0,0,0,115.47,85,21.38,21.38,0,0,1,120,72.65,29.91,29.91,0,0,0,126.19,49.69Z"/><path class="cls-3" d="M44.74,25.49A11.29,11.29,0,0,0,23,20.3,6,6,0,0,0,13.19,25c0,.17,0,.34,0,.51A9,9,0,0,0,16.2,43H41.8a9,9,0,0,0,2.94-17.5Z"/><g class="cls-1"><path class="cls-4" d="M41.8,40H16.2a9,9,0,0,1-8.91-7.52A9,9,0,0,0,16.2,43H41.8a9,9,0,0,0,8.91-10.52A9,9,0,0,1,41.8,40Z"/></g><path class="cls-5" d="M13.21,28.51c0-.17,0-.34,0-.51A6,6,0,0,1,23,23.3a11.28,11.28,0,0,1,21.79,5.19,9,9,0,0,1,6,7,8.91,8.91,0,0,0-6-10A11.29,11.29,0,0,0,23,20.3,6,6,0,0,0,13.19,25c0,.17,0,.34,0,.51a8.9,8.9,0,0,0-5.92,10A9,9,0,0,1,13.21,28.51Z"/><path class="cls-6" d="M41.8,44H16.2a10,10,0,0,1-4-19.16,7,7,0,0,1,10.32-6,12.3,12.3,0,0,1,23.31,5.43c0,.19,0,.39,0,.58A10,10,0,0,1,41.8,44ZM19.21,20a5,5,0,0,0-5,5c0,.14,0,.29,0,.43a1,1,0,0,1-.67,1A8,8,0,0,0,16.2,42H41.8a8,8,0,0,0,2.62-15.56,1,1,0,0,1-.67-1.06,9.94,9.94,0,0,0,.07-1.14,10.3,10.3,0,0,0-19.93-3.59,1,1,0,0,1-1.56.43A5,5,0,0,0,19.21,20Z"/><path class="cls-3" d="M41.8,25a9.06,9.06,0,0,1,3,.5"/><path class="cls-6" d="M44.77,26.49a1,1,0,0,1-.33-.06A8.05,8.05,0,0,0,41.8,26a1,1,0,0,1,0-2,10.05,10.05,0,0,1,3.29.55,1,1,0,0,1-.33,1.95Z"/><path class="cls-3" d="M13.21,25.5a9.06,9.06,0,0,1,3-.5"/><path class="cls-6" d="M13.21,26.5a1,1,0,0,1-.33-1.94A10,10,0,0,1,16.2,24a1,1,0,0,1,0,2,8,8,0,0,0-2.66.45A1,1,0,0,1,13.21,26.5Z"/><path class="cls-3" d="M22.91,20.26a6,6,0,0,1,1.64,2"/><path class="cls-6" d="M24.55,23.22a1,1,0,0,1-.89-.53,5.06,5.06,0,0,0-1.37-1.63,1,1,0,0,1,1.23-1.58,7.08,7.08,0,0,1,1.91,2.28,1,1,0,0,1-.88,1.47Z"/><path class="cls-3" d="M94.61,21.66a6,6,0,0,1,11.62-2.77,3.21,3.21,0,0,1,5.21,2.51c0,.09,0,.18,0,.27A4.79,4.79,0,0,1,109.84,31H96.18a4.8,4.8,0,0,1-1.57-9.34Z"/><path class="cls-5" d="M94.61,23.66a6,6,0,0,1,11.62-2.77,3.21,3.21,0,0,1,5.21,2.51c0,.09,0,.18,0,.27a4.81,4.81,0,0,1,3.11,3.54,4.76,4.76,0,0,0-3.11-5.54c0-.09,0-.18,0-.27a3.21,3.21,0,0,0-5.21-2.51,6,6,0,0,0-11.62,2.77,4.76,4.76,0,0,0-3.14,5.55A4.81,4.81,0,0,1,94.61,23.66Z"/><g class="cls-1"><path class="cls-4" d="M109.84,29H96.18a4.81,4.81,0,0,1-4.71-3.78,4.75,4.75,0,0,0-.11,1A4.81,4.81,0,0,0,96.18,31h13.66a4.81,4.81,0,0,0,4.82-4.8,4.75,4.75,0,0,0-.11-1A4.81,4.81,0,0,1,109.84,29Z"/></g><path class="cls-6" d="M109.84,32H96.18a5.79,5.79,0,0,1-2.61-11v0a7,7,0,0,1,13.1-3.5A4.22,4.22,0,0,1,112.43,21a5.79,5.79,0,0,1-2.59,11ZM100.6,16a5,5,0,0,0-5,5,5,5,0,0,0,0,.55,1,1,0,0,1-.67,1.06A3.79,3.79,0,0,0,96.18,30h13.66a3.79,3.79,0,0,0,1.26-7.38,1,1,0,0,1-.67-1c0-.06,0-.12,0-.19a2.21,2.21,0,0,0-3.59-1.72,1,1,0,0,1-1.56-.43A5,5,0,0,0,100.6,16Z"/><path class="cls-3" d="M96.18,21.4a4.83,4.83,0,0,0-1.58.26"/><path class="cls-6" d="M94.6,22.66a1,1,0,0,1-.33-1.95,5.84,5.84,0,0,1,1.91-.32,1,1,0,0,1,0,2,3.83,3.83,0,0,0-1.25.21A1,1,0,0,1,94.6,22.66Z"/><path class="cls-3" d="M111.43,21.67a4.83,4.83,0,0,0-1.59-.27"/><path class="cls-6" d="M111.43,22.67a1,1,0,0,1-.33-.06,3.84,3.84,0,0,0-1.26-.21,1,1,0,0,1,0-2,5.83,5.83,0,0,1,1.92.32,1,1,0,0,1-.33,1.94Z"/><path class="cls-3" d="M106.26,18.87a3.22,3.22,0,0,0-.87,1"/><path class="cls-6" d="M105.38,20.91a1,1,0,0,1-.88-1.47,4.25,4.25,0,0,1,1.14-1.37,1,1,0,0,1,1.23,1.58,2.23,2.23,0,0,0-.6.72A1,1,0,0,1,105.38,20.91Z"/><path class="cls-3" d="M90.77,58a8,8,0,0,1,11.88-8.85,10.49,10.49,0,0,1,18.8,5.25A7.5,7.5,0,0,1,119,69H91a5.5,5.5,0,0,1-.23-11Z"/><path class="cls-5" d="M90.77,61a7.62,7.62,0,0,1-.2-3,5.47,5.47,0,0,0-4.84,7A5.48,5.48,0,0,1,90.77,61Z"/><path class="cls-5" d="M98.51,51a8,8,0,0,1,4.14,1.16,10.49,10.49,0,0,1,18.8,5.25,7.5,7.5,0,0,1,4.9,5.62,7.49,7.49,0,0,0-4.9-8.62,10.49,10.49,0,0,0-18.8-5.25A8,8,0,0,0,90.51,56a7.72,7.72,0,0,0,.15,1.45A8,8,0,0,1,98.51,51Z"/><path class="cls-4" d="M90.77,55c0-.18-.08-.38-.11-.57,0,.2-.07.39-.09.59Z"/><g class="cls-1"><path class="cls-4" d="M119,66H91a5.5,5.5,0,0,1-5.28-4,5.44,5.44,0,0,0-.22,1.46A5.5,5.5,0,0,0,91,69h28a7.43,7.43,0,0,0,7.34-9A7.5,7.5,0,0,1,119,66Z"/></g><path class="cls-6" d="M91,70a6.5,6.5,0,0,1-1.42-12.84A8.54,8.54,0,0,1,89.51,56,9,9,0,0,1,102.4,47.9a11.49,11.49,0,0,1,20,5.81A8.5,8.5,0,0,1,119,70Zm7.5-21a7,7,0,0,0-6.77,8.76A1,1,0,0,1,90.81,59,4.5,4.5,0,0,0,91,68h28a6.5,6.5,0,0,0,2.12-12.64,1,1,0,0,1-.67-.84,9.49,9.49,0,0,0-17-4.75,1,1,0,0,1-1.32.25A7,7,0,0,0,98.51,49Z"/><path class="cls-6" d="M121,59.75a1,1,0,0,1-1-1.31A9.51,9.51,0,0,0,111,46a1,1,0,0,1,0-2,11.51,11.51,0,0,1,10.94,15.06A1,1,0,0,1,121,59.75Z"/><path class="cls-6" d="M94.63,60.36a1,1,0,0,1-.66-.25A4.5,4.5,0,0,0,91,59a1,1,0,0,1,0-2,6.5,6.5,0,0,1,4.28,1.61,1,1,0,0,1-.66,1.75Z"/><path class="cls-6" d="M105,52.34a1,1,0,0,1-.81-.42A7,7,0,0,0,98.51,49a1,1,0,0,1,0-2,9,9,0,0,1,7.32,3.76,1,1,0,0,1-.81,1.58Z"/><path class="cls-5" d="M122,86a1,1,0,0,1-.71-.3A1,1,0,0,1,121,85a1.08,1.08,0,0,1,.07-.39,1,1,0,0,1,.22-.32,1,1,0,0,1,.9-.27l.19,0,.17.09a.64.64,0,0,1,.15.13.88.88,0,0,1,.22.32A1.09,1.09,0,0,1,123,85a1,1,0,0,1-.3.7.64.64,0,0,1-.15.13l-.17.09-.19.06Z"/><path class="cls-5" d="M120,90h-6a1,1,0,1,1,0-2h6a1,1,0,0,1,0,2Z"/><path class="cls-5" d="M118,86h-7a1,1,0,0,1,0-2h7a1,1,0,0,1,0,2Z"/><path class="cls-5" d="M110,90h-2a1,1,0,0,1,0-2h2a1,1,0,0,1,0,2Z"/><path class="cls-5" d="M118,94h-8a1,1,0,0,1,0-2h8a1,1,0,0,1,0,2Z"/><path class="cls-5" d="M16,78a1,1,0,0,1-1-1,1.05,1.05,0,0,1,.08-.39,1,1,0,0,1,1.63-.32.88.88,0,0,1,.22.32A1.05,1.05,0,0,1,17,77a1,1,0,0,1-1,1Z"/><path class="cls-5" d="M17,74H15a1,1,0,1,1,0-2h2a1,1,0,0,1,0,2Z"/><path class="cls-5" d="M20,70H10a1,1,0,1,1,0-2H20a1,1,0,0,1,0,2Z"/><path class="cls-5" d="M11,74H7a1,1,0,0,1,0-2h4a1,1,0,0,1,0,2Z"/><path class="cls-5" d="M12,78H4a1,1,0,0,1,0-2h8a1,1,0,0,1,0,2Z"/><path class="cls-6" d="M80,126H54a1,1,0,1,1,0-2H80a1,1,0,0,1,0,2Z"/><path class="cls-6" d="M85,126H83a1,1,0,0,1,0-2h2a1,1,0,0,1,0,2Z"/><path class="cls-6" d="M47,126H43a1,1,0,0,1,0-2h4a1,1,0,0,1,0,2Z"/><path class="cls-6" d="M51,126H50a1,1,0,1,1,0-2h1a1,1,0,0,1,0,2Z"/></g><path class="cls-3" d="M101,43.23,64,29,27,43.23V75.87a42,42,0,0,0,16.4,33.3L64,125l20.6-15.84A42,42,0,0,0,101,75.87Z"/><polygon class="cls-5" points="64 29 27 43.23 27 47.23 64 33 101 47.23 101 43.23 64 29"/><g class="cls-1"><path class="cls-4" d="M64,29v96L84.8,109.17a42,42,0,0,0,16.55-33.41V43.23Z"/></g><g class="cls-1"><path class="cls-4" d="M84.6,105.17,64,121,43.4,105.17A42,42,0,0,1,27,71.87v4a42,42,0,0,0,16.4,33.3L64,125l20.6-15.84A42,42,0,0,0,101,75.87v-4A42,42,0,0,1,84.6,105.17Z"/></g><path class="cls-6" d="M64,126a1,1,0,0,1-.61-.21L42.79,110A43.27,43.27,0,0,1,26,75.87V43.23a1,1,0,0,1,.64-.93l37-14.22a1,1,0,0,1,.72,0l37,14.22a1,1,0,0,1,.64.93V75.87A43.27,43.27,0,0,1,85.21,110L64.61,125.8A1,1,0,0,1,64,126ZM28,43.91v32a41.25,41.25,0,0,0,16,32.51l20,15.37,20-15.37a41.25,41.25,0,0,0,16-32.5v-32L64,30.07Z"/><path class="cls-7" d="M34,48V75.87a35.22,35.22,0,0,0,13.67,27.75L64,116.17l16.33-12.55A35.22,35.22,0,0,0,94,75.87V48L64,36.5Z"/><g class="cls-1"><path class="cls-8" d="M64,116.15l16.3-12.53A35.22,35.22,0,0,0,94,75.87V48L64,36.51Z"/></g><g class="cls-9"><path class="cls-5" d="M80.33,99.62,64,112.17,47.67,99.62A35.22,35.22,0,0,1,34,71.87v4a35.22,35.22,0,0,0,13.67,27.75L64,116.17l16.33-12.55A35.22,35.22,0,0,0,94,75.87v-4A35.22,35.22,0,0,1,80.33,99.62Z"/></g><g class="cls-1"><polygon class="cls-8" points="64 36.5 34 48.03 34 52.03 64 40.5 94 52.03 94 48.03 64 36.5"/></g><path class="cls-6" d="M64,117.17a1,1,0,0,1-.61-.21L47.06,104.41A36.22,36.22,0,0,1,33,75.87V48a1,1,0,0,1,.64-.93l30-11.53a1,1,0,0,1,.72,0l30,11.53A1,1,0,0,1,95,48V75.87a36.22,36.22,0,0,1-14.06,28.54L64.61,117A1,1,0,0,1,64,117.17ZM35,48.72V75.87a34.21,34.21,0,0,0,13.28,27L64,114.91l15.72-12.09A34.21,34.21,0,0,0,93,75.87V48.72L64,37.57Z"/><g class="cls-1"><path class="cls-8" d="M85,62a3.61,3.61,0,0,0-6.34-1.79L60.91,78.79l-8.16-4.32c-1.78-.84-3.26-1.11-4.7.34A3.57,3.57,0,0,0,47,77.38a3.47,3.47,0,0,0,1,2.44L58.62,91.73a4.23,4.23,0,0,0,3,1.2h.27A4.24,4.24,0,0,0,65,91.23l19.3-26.54A3.55,3.55,0,0,0,85,62Z"/></g><path class="cls-3" d="M84,59.17a2.57,2.57,0,0,0-1-1.71h0a2.63,2.63,0,0,0-3.6.47L61.11,77l-8.79-4.65c-1.7-.81-2.59-.83-3.56.14A2.58,2.58,0,0,0,48,74.37a2.53,2.53,0,0,0,.73,1.79L59.32,88a3.21,3.21,0,0,0,2.26.92h.24a3.23,3.23,0,0,0,2.35-1.29L83.48,61.09A2.56,2.56,0,0,0,84,59.17Z"/><path class="cls-5" d="M48.76,75.52c1-1,1.86-1,3.56-.14L61.11,80,79.34,60.92a2.63,2.63,0,0,1,3.6-.47h0a2.59,2.59,0,0,1,.56.59,2.57,2.57,0,0,0-.56-3.59h0a2.63,2.63,0,0,0-3.6.47L61.11,77l-8.79-4.65c-1.7-.81-2.59-.83-3.56.14a2.59,2.59,0,0,0-.28,3.34A2.63,2.63,0,0,1,48.76,75.52Z"/><path class="cls-6" d="M61.61,89.94a4.23,4.23,0,0,1-3-1.2L48,76.83a3.48,3.48,0,0,1-1-2.44,3.57,3.57,0,0,1,1.06-2.57c1.44-1.45,2.92-1.18,4.69-.34l8.16,4.32L78.62,57.23A3.61,3.61,0,0,1,85,59a3.55,3.55,0,0,1-.69,2.67L65,88.23a4.24,4.24,0,0,1-3.09,1.69h-.27ZM50.33,72.78a1.14,1.14,0,0,0-.86.45A1.59,1.59,0,0,0,49,74.37a1.53,1.53,0,0,0,.43,1.07L60.06,87.35a2.2,2.2,0,0,0,1.51.59h.2A2.23,2.23,0,0,0,63.37,87L82.67,60.5A1.58,1.58,0,0,0,83,59.31h0a1.58,1.58,0,0,0-.63-1,1.64,1.64,0,0,0-2.23.29L61.84,77.72a1,1,0,0,1-1.19.19l-8.79-4.65A3.89,3.89,0,0,0,50.33,72.78Z"/><path class="cls-10" d="M113.33,55A5.55,5.55,0,0,0,117,58.72q2.77.92,0,1.85a5.55,5.55,0,0,0-3.69,3.69q-.92,2.77-1.85,0a5.55,5.55,0,0,0-3.69-3.69q-2.77-.92,0-1.85A5.55,5.55,0,0,0,111.48,55Q112.41,52.26,113.33,55Z"/><path class="cls-11" d="M80,16.57A3.7,3.7,0,0,0,82.48,19q1.85.62,0,1.23A3.7,3.7,0,0,0,80,22.72q-.62,1.85-1.23,0a3.7,3.7,0,0,0-2.46-2.46q-1.85-.62,0-1.23a3.7,3.7,0,0,0,2.46-2.46Q79.4,14.72,80,16.57Z"/><path class="cls-11" d="M19.17,51.8a4.62,4.62,0,0,0,3.08,3.08q2.31.77,0,1.54a4.62,4.62,0,0,0-3.08,3.08q-.77,2.31-1.54,0a4.62,4.62,0,0,0-3.08-3.08q-2.31-.77,0-1.54a4.62,4.62,0,0,0,3.08-3.08Q18.4,49.49,19.17,51.8Z"/><path class="cls-11" d="M9,99.57A3.7,3.7,0,0,0,11.47,102q1.85.62,0,1.23A3.7,3.7,0,0,0,9,105.73q-.62,1.85-1.23,0a3.7,3.7,0,0,0-2.46-2.46q-1.85-.62,0-1.23a3.7,3.7,0,0,0,2.46-2.46Q8.4,97.73,9,99.57Z"/><path class="cls-10" d="M24,106.57A3.7,3.7,0,0,0,26.47,109q1.85.62,0,1.23A3.7,3.7,0,0,0,24,112.73q-.62,1.85-1.23,0a3.7,3.7,0,0,0-2.46-2.46q-1.85-.62,0-1.23a3.7,3.7,0,0,0,2.46-2.46Q23.4,104.73,24,106.57Z"/><path class="cls-11" d="M112,105.57a3.7,3.7,0,0,0,2.46,2.46q1.85.62,0,1.23a3.7,3.7,0,0,0-2.46,2.46q-.62,1.85-1.23,0a3.7,3.7,0,0,0-2.46-2.46q-1.85-.62,0-1.23a3.7,3.7,0,0,0,2.46-2.46Q111.41,103.73,112,105.57Z"/></svg>